<?xml version="1.0" encoding="UTF-8"?>
<svg id="Isolation_Mode" xmlns="http://www.w3.org/2000/svg" xmlns:xlink="http://www.w3.org/1999/xlink" version="1.1" viewBox="0 0 498.02 494">
  <!-- Generator: Adobe Illustrator 30.2.1, SVG Export Plug-In . SVG Version: 2.1.1 Build 1)  -->
  <defs>
    <style>
      .st0, .st1 {
        fill: none;
      }

      .st2 {
        fill: #724542;
      }

      .st1 {
        stroke: #fff;
        stroke-miterlimit: 10;
      }

      .st3 {
        fill: #eeb66e;
      }

      .st4 {
        clip-path: url(#clippath-1);
      }

      .st5 {
        fill: #fff;
      }

      .st6 {
        fill: #eee5d0;
      }

      .st7 {
        opacity: .4;
      }

      .st8 {
        fill: #c3aa97;
      }

      .st9 {
        clip-path: url(#clippath);
      }
    </style>
    <clipPath id="clippath">
      <path class="st0" d="M417.6,193.41c29.59,94.21-22.79,194.59-117.01,224.18-94.22,29.59-194.59-22.78-224.19-117-29.6-94.22,22.78-194.59,117-224.19,94.21-29.6,194.59,22.78,224.19,117.01Z"/>
    </clipPath>
    <clipPath id="clippath-1">
      <path class="st0" d="M417.43,193.33c29.58,94.15-22.77,194.45-116.92,224.02-94.15,29.58-194.45-22.77-224.03-116.92-29.58-94.15,22.77-194.45,116.92-224.03,94.15-29.57,194.45,22.77,224.03,116.93Z"/>
    </clipPath>
  </defs>
  <g>
    <line class="st1" x1="247" x2="247" y2="494"/>
    <line class="st1" x1="494" y1="247" y2="247"/>
    <line class="st1" x1="374.39" y1="35.38" x2="119.61" y2="458.62"/>
    <line class="st1" x1="114.94" y1="38.27" x2="379.05" y2="455.73"/>
    <line class="st1" x1="28.53" y1="131.75" x2="465.46" y2="362.25"/>
    <line class="st1" x1="464.42" y1="129.79" x2="29.58" y2="364.21"/>
    <circle class="st1" cx="247" cy="247" r="212.36" transform="translate(-102.31 247) rotate(-45)"/>
  </g>
  <g>
    <g class="st9">
      <g>
        <rect class="st8" x="-246.7" y="63.7" width="896.13" height="76.12" transform="translate(-21.24 65.03) rotate(-17.44)"/>
        <rect class="st3" x="-223.88" y="136.32" width="896.13" height="76.12" transform="translate(-41.96 75.21) rotate(-17.44)"/>
        <rect class="st2" x="-201.07" y="208.94" width="896.14" height="76.12" transform="translate(-62.67 85.38) rotate(-17.44)"/>
        <rect class="st6" x="-179.95" y="276.16" width="896.14" height="76.12" transform="translate(-81.85 94.8) rotate(-17.44)"/>
        <rect class="st8" x="-157.14" y="348.77" width="896.14" height="76.11" transform="translate(-102.56 104.98) rotate(-17.44)"/>
      </g>
    </g>
    <path class="st2" d="M225.95,248.46c8.59,27.35-6.61,56.48-33.96,65.08-27.34,8.59-56.48-6.62-65.07-33.97-8.59-27.34,6.62-56.48,33.96-65.07,27.35-8.59,56.48,6.62,65.07,33.96Z"/>
    <g class="st7">
      <g class="st4">
        <path class="st5" d="M184.4,47.75s241.75,124.51,125.34,398.97c0,0,200.69-130.09,165.39-242.46C439.83,91.89,298.94-5.11,184.4,47.75Z"/>
      </g>
    </g>
  </g>
  <g id="_x34_2qroD.tif">
    <g>
      <path class="st5" d="M198.11,445.23h-2.15l-.19-15.37c-1.87-1.1-4.1-2.22-6.08-2.85-2.39,4.17,4.17,5.52,1.62,7.57-3.72-.67-6.14-6.22-3.64-9.05,1.66-1.89,5.28-.42,6.88.67,1.78,1.22,3.18,1.23,4.9.08,1.86-1.24,4.98-2.42,7.03-.91,1.79,1.31,1.03,4.19.24,6.24-.55,1.43-2.29,2.73-4.14,3.01-1.1-3.51,3.18-1.86,2.34-7.44-2.44.32-5.35,1.54-6.57,3.21l-.26,14.85Z"/>
      <path class="st5" d="M199.2,47.56c0-.79-.85-1.99-1.4-2.04-.66-.06-1.71,1.06-1.71,1.9l-.02,15.61c-.41.27-1.77.32-2.42.17l-.06-15.88c0-.46-.65-1.46-1.01-1.73-.46-.33-1.89.75-1.9,1.4l-.09,15.95c0,.6-2.3.61-2.44.04l.07-16.02c0-1.23,1.43-2.94,2.27-3.45.99-.6,3.29.24,4.42.25s3.08-.76,4.2-.38c1.05.36,2.49,2.13,2.5,3.62l.15,16.39c0,.51.56,1.4.83,1.65.34.3,1.69-.11,1.74-.56l.18-1.6-1.11.18c-.24.04-.33-.55-.4-1.25-.1-1.08,2.05-2.56,3.08-2.32,1.62.38,3.12,1.81,2.8,3.56l-.97.07c-1.43.11-1.12,4.9-4.9,4.52-1.35-.14-3.64-1.81-3.66-3.73l-.15-16.33Z"/>
      <g>
        <path class="st5" d="M449.38,292.34v2.43c-1.65,6.75-22.76,5.27-20.23-1.09,3.2,2.26,6.8,3.66,10.49,2.64-1.63-3.42.08-6.39,2.83-7.51,3.01-1.22,5.39.92,6.91,3.52ZM446.69,293.56c0-1.43-1.16-2.59-2.58-2.59s-2.58,1.16-2.58,2.59,1.16,2.59,2.58,2.59,2.58-1.16,2.58-2.59Z"/>
        <path class="st5" d="M449.38,284.38v2.35c-3.4-2.07-7.08-3.92-11.12-2.72,1.61,3.23.03,6.19-2.47,7.38-2.76,1.32-5.72-.49-6.61-3.17s.62-5.51,3.58-6.3c5.35-1.42,12.32-1.13,16.62,2.47ZM436.44,286.76c0-1.38-1.12-2.5-2.5-2.5s-2.5,1.12-2.5,2.5,1.12,2.5,2.5,2.5,2.5-1.12,2.5-2.5Z"/>
      </g>
      <path class="st5" d="M392.13,113.42c-2.38-7.58-1.07-14.29-3.49-14.54-.55-.06-1.55,1.1-1.55,1.67l-.03,16.03-2.44.16-.04-16.12c0-.54-.71-1.54-1.2-1.69-.59-.17-1.78,1.04-1.78,1.66v16.18s-2.52-.15-2.52-.15l.11-16.42c0-1.07,1.46-2.72,2.22-3.34.94-.76,3.35.31,4.42.16,1.75-.25,3.93-.5,5.67.16.98-.18,3.11-.9,4.07-.49,4.95,2.08,1.28,14.52.15,18.5-.48,1.67,2.52,3.87,2.1,4.28l-1.18,1.18c-.6.6-2.21-2.23-2.31-2.13l-1.1,1.04-1.18,1.09c-.3.28-1.04-.52-1.3-.85-1.21-1.54,2.95-1.43,1.39-6.39ZM393.83,98.9c-2.32,1.51-.53,9.44.32,12.18.93-1.16,2.88-14.26-.32-12.18Z"/>
      <path class="st5" d="M58.75,193.05l-5.5,12.61c-.32.72-2.63.76-2.89.01l-5.98-16.92c.42-.2,1.69-.33,2.54-.31l4.88,13.71c2-4.48,3.93-8.36,5.12-12.5.65-2.28.74-4.32,3.18-5.08s4.66.33,5.6,2.37c1.1,2.4-.01,4.77-2.25,6.02l2.38,3.98c1.17,1.95.87,4.71-.37,6.63-1.47,2.28-4.7,3.27-7.24,3.04-.42-.04-.42-1.39-.21-1.76.43-.77,6.02-.56,5.85-4.57-.12-2.93-1.54-5.71-5.1-7.24ZM63.45,188.78c0-1.08-.87-1.95-1.95-1.95s-1.95.87-1.95,1.95.87,1.95,1.95,1.95,1.95-.87,1.95-1.95Z"/>
      <path class="st5" d="M400.81,386.76h-17.49s-.21-2.28-.21-2.28l3.32-.44-.09-15.17-2.89-.1c-.55-.02-.42-1.64-.14-2.36l18.02-.03-.02,2.35-3.31.36.11,15.17,3.13.27c.53.05.16,2.24-.44,2.24ZM395.55,368.88h-6.66v15.39h6.66v-15.39Z"/>
      <path class="st5" d="M438.27,202.9c-1.27-2.64.1-5.83,1.33-8.07l2.85-5.2c.82-1.49.93-4.71-.63-5.8-1.9-1.33-5.11-1.49-7.2-.9-2.51.71-2.47,3.57-1.56,5.51,1.07,2.29,2.17,4.72,2.36,7.15.24,2.97-2.16,5.01-4.55,5.02-2.65,0-4.6-2.15-4.55-4.69.06-2.69,2.52-4.2,5.46-4.55-1.27-2.72-2.27-5.46-1.03-7.77,2.79-5.16,12.34-3.64,13.91.03,3.32,7.78-5.66,12.15-4.34,18.14.31,1.41,2.83.8,3.54-.06.36-.43.91-1.16,1.19-.97.37.27.93.82,1.14,1.18s-.58,1.21-.99,1.56c-1.91,1.69-5.54,2.32-6.94-.58ZM433.39,196.18c0-1.43-1.16-2.59-2.58-2.59s-2.58,1.16-2.58,2.59,1.16,2.59,2.58,2.59,2.58-1.16,2.58-2.59Z"/>
      <path class="st5" d="M105.26,113.1l-8.68,8.62c-.67.66-2.83.5-3.44.03l8.07-8.16-1.65-.77c-.47-.22,0-1.92.51-1.95l4.14-.23,6.05-6.17-2.1-.72c-.44-.15-.13-1.89.34-1.89h6.16s.07,6.42.07,6.42c0,.4-1.8.97-1.95.6l-.94-2.31-3.85,3.78,1.5.8c.4.21.28,1.91-.18,1.91l-4.05.04Z"/>
      <path class="st5" d="M110.85,387.97c-2.99,1.7-4.57-2.25-5.81-4.66l-5.65-.05-1.98,3.65c-.69,1.27-2.63,1.79-3.91,1.1,4.91-5.91,5.07-13.9.03-19.73,1.01-.6,3.08-.25,3.65.76l2.23,3.96,5.6-.03c1.39-2.52,2.65-6.23,5.89-4.72-4.9,5.88-4.97,13.43-.05,19.72ZM99.76,375.53v5.2h4.95v-5.2h-4.95Z"/>
      <g>
        <rect class="st5" x="288.26" y="57.7" width="20.21" height="2.34"/>
        <path class="st5" d="M300.82,52.11c-.09-.93-1.46-2.21-2.41-2.23-.9-.02-2.36,1.16-2.45,2.08l-.29,2.97-7.2.03-.18-2.37,4.93-.21c.58-2.82,2.6-4.98,5.21-4.95s4.57,2.18,5.12,4.99l4.7.15.07,2.35-7.21.05-.28-2.85Z"/>
      </g>
      <path class="st5" d="M305.99,428.92c1.65,1.75,3.17,3.75,3.37,5.75.24,2.4-1.05,4.77-2.81,6.36-2.85,2.57-6.66,2.6-9.54.05-1.7-1.51-2.97-3.75-2.9-6.02s1.73-4.33,3.39-6.2c-1.39-1.05-3.18-3.77-3.32-5.49-.04-.46,1.37-1.08,1.68-.81,1.54,1.37,1.68,4.98,5.69,5.15,2.17.09,4.03-1.36,4.93-3.42l.6-1.37c.18-.4,1.53-.21,2.24-.08-.05,2.17-1.4,4.26-3.34,6.07ZM306.82,435.35c0-2.8-2.27-5.08-5.07-5.08s-5.07,2.27-5.07,5.08,2.27,5.08,5.07,5.08,5.07-2.27,5.07-5.08Z"/>
      <g>
        <path class="st5" d="M65.18,296.21l-3.41,3.24-3.42-3.17-3.43,3.16-3.36-3.19-3.1,2.95c-.92-2.95,1.64-4.31,3.33-5.65l3.25,3.09,3.33-3.25,3.43,3.22,2.94-2.96c2.43,1.04,4.27,3.33,3.74,5.88l-3.33-3.33Z"/>
        <path class="st5" d="M68.25,292.35l-3.06-2.72-3.45,3.17-3.29-3.18-3.55,3.16-3.29-3.19-3.14,2.87c-.87-2.97,1.63-4.19,3.33-5.58l3.08,3.05,3.5-3.16,3.28,3.13,3.48-3.06,2.96,2.91c.42.42.29,2.07.13,2.59Z"/>
      </g>
    </g>
  </g>
</svg>