<svg viewBox="0 0 1000 1186" xmlns="http://www.w3.org/2000/svg">
  <rect width="1000" height="1186" fill="#1f2a52"/>
  <circle cx="639.4" cy="29.7" r="0.59" fill="white" opacity="0.42"/>
  <circle cx="736.5" cy="802.6" r="1.02" fill="white" opacity="0.35"/>
  <circle cx="421.9" cy="35.3" r="0.55" fill="white" opacity="0.58"/>
  <circle cx="26.5" cy="235.8" r="0.85" fill="white" opacity="0.60"/>
  <circle cx="220.4" cy="698.9" r="0.97" fill="white" opacity="0.30"/>
  <circle cx="805.8" cy="828.0" r="0.64" fill="white" opacity="0.39"/>
  <circle cx="957.2" cy="399.2" r="0.46" fill="white" opacity="0.35"/>
  <circle cx="847.5" cy="716.0" r="0.96" fill="white" opacity="0.70"/>
  <circle cx="536.2" cy="1154.1" r="0.66" fill="white" opacity="0.60"/>
  <circle cx="829.4" cy="733.6" r="1.00" fill="white" opacity="0.62"/>
  <circle cx="704.6" cy="54.3" r="0.56" fill="white" opacity="0.46"/>
  <circle cx="79.8" cy="276.1" r="0.47" fill="white" opacity="0.45"/>
  <circle cx="635.7" cy="432.7" r="0.66" fill="white" opacity="0.42"/>
  <circle cx="267.0" cy="1110.9" r="0.85" fill="white" opacity="0.64"/>
  <circle cx="171.1" cy="864.7" r="0.51" fill="white" opacity="0.51"/>
  <circle cx="989.5" cy="759.0" r="0.79" fill="white" opacity="0.68"/>
  <circle cx="842.9" cy="920.3" r="0.56" fill="white" opacity="0.32"/>
  <circle cx="315.5" cy="317.5" r="0.55" fill="white" opacity="0.82"/>
  <circle cx="876.4" cy="373.2" r="0.86" fill="white" opacity="0.52"/>
  <circle cx="914.5" cy="544.2" r="0.59" fill="white" opacity="0.44"/>
  <circle cx="561.4" cy="311.6" r="0.81" fill="white" opacity="0.79"/>
  <circle cx="399.4" cy="260.1" r="1.10" fill="white" opacity="0.58"/>
  <circle cx="90.9" cy="55.9" r="0.48" fill="white" opacity="0.65"/>
  <circle cx="792.1" cy="500.7" r="0.44" fill="white" opacity="0.51"/>
  <circle cx="996.1" cy="627.5" r="1.08" fill="white" opacity="0.77"/>
  <circle cx="11.5" cy="854.8" r="0.88" fill="white" opacity="0.60"/>
  <circle cx="266.8" cy="760.2" r="0.48" fill="white" opacity="0.54"/>
  <circle cx="453.7" cy="1131.2" r="1.01" fill="white" opacity="0.44"/>
  <circle cx="500.6" cy="211.9" r="1.04" fill="white" opacity="0.78"/>
  <circle cx="298.4" cy="757.8" r="0.83" fill="white" opacity="0.38"/>
  <circle cx="762.5" cy="639.7" r="0.95" fill="white" opacity="0.59"/>
  <circle cx="0.6" cy="384.4" r="0.41" fill="white" opacity="0.81"/>
  <circle cx="878.7" cy="986.4" r="0.62" fill="white" opacity="0.33"/>
  <circle cx="878.0" cy="1123.1" r="0.46" fill="white" opacity="0.57"/>
  <circle cx="69.2" cy="902.1" r="0.94" fill="white" opacity="0.37"/>
  <circle cx="475.3" cy="652.1" r="0.59" fill="white" opacity="0.78"/>
  <circle cx="423.1" cy="251.2" r="0.78" fill="white" opacity="0.70"/>
  <circle cx="201.2" cy="369.7" r="1.10" fill="white" opacity="0.66"/>
  <circle cx="438.1" cy="613.8" r="0.48" fill="white" opacity="0.42"/>
  <circle cx="338.1" cy="697.7" r="0.56" fill="white" opacity="0.42"/>
  <circle cx="71.0" cy="748.5" r="0.56" fill="white" opacity="0.80"/>
  <circle cx="859.6" cy="84.0" r="0.57" fill="white" opacity="0.67"/>
  <circle cx="214.2" cy="156.9" r="1.05" fill="white" opacity="0.61"/>
  <circle cx="472.7" cy="930.6" r="0.97" fill="white" opacity="0.40"/>
  <circle cx="96.9" cy="511.2" r="0.70" fill="white" opacity="0.56"/>
  <circle cx="729.1" cy="798.6" r="1.09" fill="white" opacity="0.35"/>
  <circle cx="402.6" cy="402.4" r="1.00" fill="white" opacity="0.44"/>
  <circle cx="190.2" cy="532.1" r="0.70" fill="white" opacity="0.45"/>
  <circle cx="249.8" cy="1095.0" r="0.71" fill="white" opacity="0.77"/>
  <circle cx="550.3" cy="60.0" r="1.10" fill="white" opacity="0.76"/>
  <circle cx="969.0" cy="1098.7" r="0.99" fill="white" opacity="0.39"/>
  <circle cx="485.6" cy="253.5" r="0.68" fill="white" opacity="0.33"/>
  <circle cx="379.0" cy="1168.6" r="0.59" fill="white" opacity="0.73"/>
  <circle cx="455.0" cy="501.7" r="1.07" fill="white" opacity="0.85"/>
  <circle cx="555.8" cy="852.0" r="0.51" fill="white" opacity="0.46"/>
  <circle cx="968.7" cy="686.9" r="0.78" fill="white" opacity="0.71"/>
  <circle cx="57.2" cy="692.8" r="0.75" fill="white" opacity="0.77"/>
  <circle cx="157.4" cy="1139.5" r="0.46" fill="white" opacity="0.40"/>
  <circle cx="595.0" cy="800.8" r="0.56" fill="white" opacity="0.37"/>
  <circle cx="890.3" cy="292.0" r="0.82" fill="white" opacity="0.64"/>
  <circle cx="419.2" cy="692.2" r="0.77" fill="white" opacity="0.81"/>
  <circle cx="204.3" cy="849.4" r="0.57" fill="white" opacity="0.52"/>
  <circle cx="671.7" cy="355.8" r="0.62" fill="white" opacity="0.71"/>
  <circle cx="72.5" cy="543.5" r="1.10" fill="white" opacity="0.85"/>
  <circle cx="73.3" cy="252.8" r="0.59" fill="white" opacity="0.81"/>
  <circle cx="880.9" cy="1042.8" r="0.66" fill="white" opacity="0.39"/>
  <circle cx="833.7" cy="834.4" r="0.83" fill="white" opacity="0.84"/>
  <circle cx="654.0" cy="9.3" r="0.97" fill="white" opacity="0.46"/>
  <circle cx="663.4" cy="1113.6" r="0.49" fill="white" opacity="0.36"/>
  <circle cx="107.0" cy="656.1" r="0.59" fill="white" opacity="0.63"/>
  <circle cx="717.6" cy="241.5" r="0.84" fill="white" opacity="0.45"/>
  <circle cx="488.5" cy="1073.7" r="0.99" fill="white" opacity="0.35"/>
  <circle cx="423.6" cy="328.1" r="0.40" fill="white" opacity="0.72"/>
  <circle cx="637.1" cy="310.7" r="0.92" fill="white" opacity="0.60"/>
  <circle cx="427.7" cy="11.5" r="0.45" fill="white" opacity="0.79"/>
  <circle cx="903.9" cy="647.1" r="0.98" fill="white" opacity="0.62"/>
  <circle cx="148.1" cy="151.2" r="0.62" fill="white" opacity="0.79"/>
  <circle cx="796.1" cy="1020.8" r="1.03" fill="white" opacity="0.42"/>
  <circle cx="249.5" cy="121.9" r="0.95" fill="white" opacity="0.79"/>
  <circle cx="406.4" cy="736.1" r="0.51" fill="white" opacity="0.81"/>
  <circle cx="864.6" cy="1157.8" r="0.97" fill="white" opacity="0.78"/>
  <circle cx="24.8" cy="873.6" r="0.63" fill="white" opacity="0.81"/>
  <circle cx="802.2" cy="1024.8" r="0.97" fill="white" opacity="0.45"/>
  <circle cx="787.4" cy="128.2" r="1.01" fill="white" opacity="0.77"/>
  <circle cx="222.4" cy="968.5" r="0.72" fill="white" opacity="0.47"/>
  <circle cx="795.3" cy="269.9" r="0.42" fill="white" opacity="0.41"/>
  <circle cx="328.3" cy="1025.1" r="1.08" fill="white" opacity="0.45"/>
  <circle cx="641.5" cy="474.0" r="1.09" fill="white" opacity="0.59"/>
  <circle cx="939.2" cy="136.8" r="1.08" fill="white" opacity="0.40"/>
  <circle cx="962.5" cy="314.8" r="0.48" fill="white" opacity="0.54"/>
  <circle cx="728.5" cy="372.0" r="0.82" fill="white" opacity="0.58"/>
  <circle cx="385.2" cy="683.8" r="0.58" fill="white" opacity="0.69"/>
  <circle cx="1.7" cy="1097.7" r="0.78" fill="white" opacity="0.70"/>
  <circle cx="742.0" cy="795.4" r="0.65" fill="white" opacity="0.34"/>
  <circle cx="664.2" cy="391.6" r="0.62" fill="white" opacity="0.77"/>
  <circle cx="719.8" cy="356.2" r="0.62" fill="white" opacity="0.52"/>
  <circle cx="402.4" cy="350.6" r="0.49" fill="white" opacity="0.53"/>
  <circle cx="940.4" cy="803.3" r="1.03" fill="white" opacity="0.64"/>
  <circle cx="300.9" cy="649.9" r="0.40" fill="white" opacity="0.46"/>
  <circle cx="429.9" cy="687.9" r="0.86" fill="white" opacity="0.56"/>
  <circle cx="442.2" cy="253.4" r="0.73" fill="white" opacity="0.80"/>
  <circle cx="796.0" cy="201.3" r="0.46" fill="white" opacity="0.58"/>
  <circle cx="632.9" cy="397.5" r="0.97" fill="white" opacity="0.71"/>
  <circle cx="672.8" cy="266.4" r="0.54" fill="white" opacity="0.31"/>
  <circle cx="244.8" cy="563.5" r="0.99" fill="white" opacity="0.34"/>
  <circle cx="414.4" cy="746.9" r="0.54" fill="white" opacity="0.68"/>
  <circle cx="494.4" cy="289.4" r="0.86" fill="white" opacity="0.30"/>
  <circle cx="751.0" cy="913.3" r="0.47" fill="white" opacity="0.53"/>
  <circle cx="175.9" cy="1136.1" r="0.76" fill="white" opacity="0.33"/>
  <circle cx="249.2" cy="1006.1" r="0.72" fill="white" opacity="0.74"/>
  <circle cx="667.6" cy="1171.6" r="0.82" fill="white" opacity="0.82"/>
  <circle cx="891.4" cy="726.6" r="0.90" fill="white" opacity="0.58"/>
  <circle cx="830.6" cy="649.8" r="1.03" fill="white" opacity="0.71"/>
  <circle cx="474.7" cy="307.4" r="0.57" fill="white" opacity="0.65"/>
  <circle cx="765.8" cy="618.3" r="0.84" fill="white" opacity="0.45"/>
  <circle cx="77.5" cy="338.9" r="0.59" fill="white" opacity="0.48"/>
  <circle cx="540.2" cy="164.1" r="0.56" fill="white" opacity="0.68"/>
  <circle cx="706.4" cy="76.2" r="0.69" fill="white" opacity="0.60"/>
  <circle cx="415.8" cy="245.3" r="0.69" fill="white" opacity="0.80"/>
  <circle cx="584.1" cy="824.9" r="1.00" fill="white" opacity="0.72"/>
  <circle cx="380.4" cy="7.0" r="0.65" fill="white" opacity="0.71"/>
  <circle cx="853.4" cy="1130.8" r="0.69" fill="white" opacity="0.71"/>
  <circle cx="546.1" cy="715.5" r="0.55" fill="white" opacity="0.42"/>
  <circle cx="435.8" cy="34.4" r="0.64" fill="white" opacity="0.67"/>
  <circle cx="404.3" cy="195.7" r="0.73" fill="white" opacity="0.37"/>
  <circle cx="622.3" cy="32.0" r="0.68" fill="white" opacity="0.61"/>
  <circle cx="27.1" cy="762.3" r="0.49" fill="white" opacity="0.55"/>
  <circle cx="50.3" cy="449.6" r="0.55" fill="white" opacity="0.48"/>
  <circle cx="761.2" cy="449.6" r="0.93" fill="white" opacity="0.76"/>
  <circle cx="252.3" cy="97.1" r="0.41" fill="white" opacity="0.60"/>
  <circle cx="999.9" cy="415.1" r="0.86" fill="white" opacity="0.73"/>
  <circle cx="651.8" cy="894.5" r="1.06" fill="white" opacity="0.41"/>
  <circle cx="20.4" cy="180.7" r="0.49" fill="white" opacity="0.67"/>
  <circle cx="564.0" cy="258.5" r="0.89" fill="white" opacity="0.72"/>
  <circle cx="167.8" cy="720.2" r="0.92" fill="white" opacity="0.36"/>
  <circle cx="819.3" cy="1144.2" r="0.48" fill="white" opacity="0.31"/>
  <circle cx="312.0" cy="803.3" r="1.07" fill="white" opacity="0.52"/>
  <circle cx="715.0" cy="90.1" r="0.88" fill="white" opacity="0.64"/>
  <circle cx="101.9" cy="916.2" r="1.00" fill="white" opacity="0.63"/>
  <circle cx="121.1" cy="1166.8" r="0.95" fill="white" opacity="0.49"/>
  <circle cx="428.4" cy="439.5" r="0.75" fill="white" opacity="0.49"/>
  <circle cx="849.6" cy="975.3" r="0.47" fill="white" opacity="0.83"/>
  <circle cx="635.6" cy="982.8" r="0.90" fill="white" opacity="0.54"/>
  <circle cx="733.8" cy="1145.1" r="0.59" fill="white" opacity="0.74"/>
  <circle cx="538.2" cy="573.4" r="0.70" fill="white" opacity="0.70"/>
  <circle cx="268.4" cy="1010.1" r="0.98" fill="white" opacity="0.35"/>
  <circle cx="881.6" cy="289.2" r="0.73" fill="white" opacity="0.64"/>
  <circle cx="379.0" cy="34.0" r="1.00" fill="white" opacity="0.40"/>
  <circle cx="212.1" cy="946.2" r="0.64" fill="white" opacity="0.78"/>
  <circle cx="701.2" cy="327.7" r="0.41" fill="white" opacity="0.82"/>
  <circle cx="85.6" cy="854.0" r="0.74" fill="white" opacity="0.72"/>
  <circle cx="690.6" cy="766.0" r="0.74" fill="white" opacity="0.74"/>
  <circle cx="93.1" cy="262.8" r="0.88" fill="white" opacity="0.47"/>
  <circle cx="581.6" cy="561.3" r="0.77" fill="white" opacity="0.53"/>
  <circle cx="745.9" cy="392.3" r="0.89" fill="white" opacity="0.45"/>
  <circle cx="251.4" cy="143.1" r="0.53" fill="white" opacity="0.37"/>
  <circle cx="535.9" cy="904.0" r="0.53" fill="white" opacity="0.42"/>
  <circle cx="484.2" cy="859.4" r="1.08" fill="white" opacity="0.59"/>
  <circle cx="283.0" cy="119.2" r="0.54" fill="white" opacity="0.43"/>
  <circle cx="179.4" cy="16.8" r="0.77" fill="white" opacity="0.45"/>
  <circle cx="974.3" cy="656.3" r="0.89" fill="white" opacity="0.37"/>
  <circle cx="868.5" cy="582.2" r="1.01" fill="white" opacity="0.62"/>
  <circle cx="469.4" cy="522.4" r="0.53" fill="white" opacity="0.33"/>
  <circle cx="941.1" cy="566.6" r="0.98" fill="white" opacity="0.52"/>
  <circle cx="74.1" cy="746.5" r="0.44" fill="white" opacity="0.38"/>
  <circle cx="562.8" cy="360.3" r="1.10" fill="white" opacity="0.37"/>
  <circle cx="764.4" cy="719.1" r="0.95" fill="white" opacity="0.42"/>
  <circle cx="522.6" cy="534.3" r="0.71" fill="white" opacity="0.77"/>
  <circle cx="990.0" cy="362.2" r="0.83" fill="white" opacity="0.64"/>
  <circle cx="740.1" cy="1123.8" r="0.55" fill="white" opacity="0.42"/>
  <circle cx="660.4" cy="186.3" r="0.52" fill="white" opacity="0.34"/>
  <circle cx="2.7" cy="534.3" r="0.82" fill="white" opacity="0.46"/>
  <circle cx="231.5" cy="838.4" r="0.89" fill="white" opacity="0.55"/>
  <circle cx="687.4" cy="1095.8" r="0.95" fill="white" opacity="0.64"/>
  <circle cx="661.2" cy="1107.3" r="0.70" fill="white" opacity="0.60"/>
  <circle cx="647.6" cy="1077.4" r="0.98" fill="white" opacity="0.34"/>
  <circle cx="165.9" cy="364.8" r="0.92" fill="white" opacity="0.61"/>
  <circle cx="288.6" cy="147.5" r="0.88" fill="white" opacity="0.68"/>
  <circle cx="942.7" cy="593.6" r="0.75" fill="white" opacity="0.34"/>
  <circle cx="39.9" cy="512.4" r="0.63" fill="white" opacity="0.44"/>
  <circle cx="91.3" cy="1140.8" r="0.99" fill="white" opacity="0.62"/>
  <circle cx="950.8" cy="1185.5" r="0.87" fill="white" opacity="0.45"/>
  <circle cx="40.2" cy="896.9" r="0.73" fill="white" opacity="0.66"/>
  <circle cx="916.1" cy="215.2" r="0.81" fill="white" opacity="0.65"/>
  <circle cx="491.7" cy="108.2" r="0.64" fill="white" opacity="0.48"/>
  <circle cx="670.1" cy="1017.3" r="0.63" fill="white" opacity="0.68"/>
  <circle cx="288.2" cy="1121.0" r="0.97" fill="white" opacity="0.60"/>
  <circle cx="454.8" cy="373.0" r="0.63" fill="white" opacity="0.83"/>
  <circle cx="404.2" cy="610.3" r="1.09" fill="white" opacity="0.66"/>
  <circle cx="542.6" cy="490.1" r="0.53" fill="white" opacity="0.50"/>
  <circle cx="756.4" cy="741.7" r="0.93" fill="white" opacity="0.41"/>
  <circle cx="549.2" cy="1100.2" r="0.71" fill="white" opacity="0.68"/>
  <circle cx="121.4" cy="1154.2" r="0.83" fill="white" opacity="0.43"/>
  <circle cx="158.4" cy="653.3" r="0.79" fill="white" opacity="0.35"/>
  <circle cx="992.3" cy="1082.7" r="0.72" fill="white" opacity="0.36"/>
  <circle cx="832.1" cy="591.1" r="0.90" fill="white" opacity="0.58"/>
  <circle cx="273.4" cy="990.0" r="1.09" fill="white" opacity="0.43"/>
  <circle cx="551.3" cy="454.9" r="1.05" fill="white" opacity="0.58"/>
  <circle cx="879.3" cy="1024.7" r="0.59" fill="white" opacity="0.73"/>
  <circle cx="414.9" cy="1108.0" r="0.76" fill="white" opacity="0.75"/>
  <circle cx="282.8" cy="354.1" r="0.81" fill="white" opacity="0.85"/>
  <circle cx="489.6" cy="176.2" r="0.78" fill="white" opacity="0.49"/>
  <circle cx="551.9" cy="644.5" r="0.72" fill="white" opacity="0.48"/>
  <circle cx="188.7" cy="827.2" r="0.80" fill="white" opacity="0.43"/>
  <circle cx="775.5" cy="51.8" r="0.92" fill="white" opacity="0.69"/>
  <circle cx="811.4" cy="457.9" r="0.86" fill="white" opacity="0.75"/>
  <circle cx="980.8" cy="587.5" r="0.43" fill="white" opacity="0.58"/>
  <circle cx="590.2" cy="1031.5" r="1.01" fill="white" opacity="0.54"/>
  <circle cx="526.0" cy="541.9" r="0.91" fill="white" opacity="0.53"/>
  <circle cx="654.8" cy="183.1" r="0.73" fill="white" opacity="0.83"/>
  <circle cx="338.6" cy="821.5" r="0.85" fill="white" opacity="0.77"/>
  <circle cx="852.3" cy="1019.2" r="0.67" fill="white" opacity="0.47"/>
  <circle cx="718.7" cy="900.7" r="1.01" fill="white" opacity="0.32"/>
  <circle cx="68.4" cy="748.6" r="1.04" fill="white" opacity="0.85"/>
  <circle cx="746.8" cy="514.7" r="0.47" fill="white" opacity="0.65"/>
  <circle cx="872.6" cy="526.2" r="0.89" fill="white" opacity="0.80"/>
  <circle cx="46.0" cy="944.2" r="0.61" fill="white" opacity="0.51"/>
  <circle cx="145.6" cy="630.0" r="0.80" fill="white" opacity="0.74"/>
  <circle cx="170.0" cy="93.7" r="1.01" fill="white" opacity="0.64"/>
  <circle cx="240.8" cy="1082.6" r="0.50" fill="white" opacity="0.55"/>
  <circle cx="254.0" cy="302.8" r="0.41" fill="white" opacity="0.74"/>
  <circle cx="901.2" cy="803.6" r="0.51" fill="white" opacity="0.54"/>
  <circle cx="345.6" cy="696.9" r="0.85" fill="white" opacity="0.53"/>
  <circle cx="250.1" cy="1002.5" r="0.54" fill="white" opacity="0.51"/>
  <circle cx="483.2" cy="281.3" r="0.80" fill="white" opacity="0.62"/>
  <circle cx="992.7" cy="350.1" r="1.08" fill="white" opacity="0.66"/>
  <circle cx="274.5" cy="671.2" r="0.88" fill="white" opacity="0.71"/>
  <circle cx="49.0" cy="719.2" r="0.75" fill="white" opacity="0.80"/>
  <circle cx="286.2" cy="947.4" r="0.82" fill="white" opacity="0.49"/>
  <circle cx="636.6" cy="736.4" r="0.87" fill="white" opacity="0.70"/>
  <circle cx="659.2" cy="994.3" r="0.84" fill="white" opacity="0.80"/>
  <circle cx="646.3" cy="366.4" r="0.71" fill="white" opacity="0.62"/>
  <circle cx="732.4" cy="106.9" r="0.61" fill="white" opacity="0.71"/>
  <circle cx="175.6" cy="156.7" r="0.78" fill="white" opacity="0.83"/>
  <circle cx="530.9" cy="1083.4" r="0.98" fill="white" opacity="0.44"/>
  <circle cx="824.7" cy="571.5" r="0.96" fill="white" opacity="0.71"/>
  <circle cx="338.7" cy="136.6" r="1.07" fill="white" opacity="0.38"/>
  <circle cx="966.5" cy="1020.1" r="0.91" fill="white" opacity="0.84"/>
  <circle cx="967.3" cy="954.2" r="0.66" fill="white" opacity="0.73"/>
  <circle cx="13.9" cy="636.4" r="0.72" fill="white" opacity="0.67"/>
  <circle cx="672.3" cy="693.3" r="0.98" fill="white" opacity="0.82"/>
  <circle cx="108.3" cy="277.3" r="0.42" fill="white" opacity="0.79"/>
  <circle cx="561.4" cy="1085.5" r="0.55" fill="white" opacity="0.33"/>
  <circle cx="823.9" cy="1078.5" r="0.61" fill="white" opacity="0.52"/>
  <circle cx="139.8" cy="1122.3" r="0.61" fill="white" opacity="0.57"/>
  <circle cx="97.2" cy="1052.3" r="0.49" fill="white" opacity="0.55"/>
  <circle cx="670.5" cy="881.4" r="1.06" fill="white" opacity="0.53"/>
  <circle cx="742.3" cy="183.3" r="0.69" fill="white" opacity="0.35"/>
  <circle cx="489.3" cy="484.0" r="1.07" fill="white" opacity="0.32"/>
  <circle cx="370.5" cy="525.9" r="1.07" fill="white" opacity="0.77"/>
  <circle cx="99.4" cy="813.2" r="0.78" fill="white" opacity="0.84"/>
  <circle cx="358.7" cy="472.2" r="0.53" fill="white" opacity="0.37"/>
  <circle cx="848.0" cy="539.3" r="0.86" fill="white" opacity="0.65"/>
  <circle cx="597.1" cy="25.3" r="0.95" fill="white" opacity="0.43"/>
  <circle cx="125.9" cy="669.6" r="0.45" fill="white" opacity="0.72"/>
  <circle cx="207.2" cy="256.1" r="1.01" fill="white" opacity="0.48"/>
  <circle cx="147.6" cy="1068.0" r="0.40" fill="white" opacity="0.77"/>
  <circle cx="144.7" cy="154.2" r="0.58" fill="white" opacity="0.40"/>
  <circle cx="661.1" cy="30.6" r="0.41" fill="white" opacity="0.73"/>
  <circle cx="237.9" cy="384.0" r="0.52" fill="white" opacity="0.33"/>
  <circle cx="741.7" cy="623.9" r="0.92" fill="white" opacity="0.56"/>
  <circle cx="778.0" cy="608.7" r="0.48" fill="white" opacity="0.58"/>
  <circle cx="945.4" cy="51.4" r="0.95" fill="white" opacity="0.78"/>
  <circle cx="521.5" cy="543.2" r="1.07" fill="white" opacity="0.33"/>
  <circle cx="479.0" cy="476.3" r="0.88" fill="white" opacity="0.57"/>
  <circle cx="909.7" cy="87.2" r="0.46" fill="white" opacity="0.63"/>
  <circle cx="65.7" cy="326.2" r="0.84" fill="white" opacity="0.60"/>
  <circle cx="325.2" cy="1179.6" r="0.77" fill="white" opacity="0.55"/>
  <circle cx="605.4" cy="117.6" r="0.89" fill="white" opacity="0.77"/>
  <circle cx="650.9" cy="912.0" r="0.90" fill="white" opacity="0.42"/>
  <circle cx="451.6" cy="271.0" r="0.64" fill="white" opacity="0.55"/>
  <circle cx="416.0" cy="112.8" r="0.70" fill="white" opacity="0.67"/>
  <circle cx="374.3" cy="181.0" r="1.05" fill="white" opacity="0.34"/>
  <circle cx="831.8" cy="110.6" r="0.47" fill="white" opacity="0.71"/>
  <circle cx="811.8" cy="659.9" r="0.81" fill="white" opacity="0.61"/>
  <circle cx="329.6" cy="145.0" r="0.65" fill="white" opacity="0.67"/>
  <circle cx="750.3" cy="1029.6" r="0.90" fill="white" opacity="0.83"/>
  <circle cx="600.4" cy="417.1" r="0.80" fill="white" opacity="0.42"/>
  <circle cx="656.7" cy="266.0" r="0.48" fill="white" opacity="0.76"/>
  <circle cx="367.6" cy="904.5" r="0.80" fill="white" opacity="0.74"/>
  <circle cx="845.2" cy="1155.8" r="0.97" fill="white" opacity="0.64"/>
  <circle cx="642.7" cy="31.1" r="1.05" fill="white" opacity="0.76"/>
  <circle cx="267.4" cy="214.0" r="0.89" fill="white" opacity="0.47"/>
  <circle cx="339.8" cy="7.2" r="1.01" fill="white" opacity="0.61"/>
  <circle cx="400.8" cy="168.3" r="0.84" fill="white" opacity="0.32"/>
  <circle cx="746.1" cy="255.1" r="0.69" fill="white" opacity="0.49"/>
  <circle cx="370.1" cy="855.8" r="0.94" fill="white" opacity="0.61"/>
  <circle cx="85.0" cy="62.4" r="0.51" fill="white" opacity="0.64"/>
  <circle cx="674.0" cy="322.7" r="0.86" fill="white" opacity="0.57"/>
  <circle cx="442.0" cy="324.0" r="0.93" fill="white" opacity="0.36"/>
  <circle cx="429.9" cy="335.9" r="0.87" fill="white" opacity="0.57"/>
  <circle cx="667.1" cy="53.9" r="0.68" fill="white" opacity="0.63"/>
  <circle cx="7.7" cy="357.5" r="0.55" fill="white" opacity="0.38"/>
  <circle cx="255.5" cy="389.2" r="0.41" fill="white" opacity="0.71"/>
  <circle cx="175.7" cy="450.9" r="0.89" fill="white" opacity="0.58"/>
  <circle cx="833.4" cy="956.2" r="0.45" fill="white" opacity="0.77"/>
  <circle cx="42.3" cy="22.2" r="1.04" fill="white" opacity="0.77"/>
  <circle cx="575.8" cy="680.1" r="0.90" fill="white" opacity="0.53"/>
  <circle cx="115.2" cy="24.7" r="0.63" fill="white" opacity="0.74"/>
  <circle cx="618.1" cy="986.8" r="1.04" fill="white" opacity="0.35"/>
  <circle cx="823.8" cy="302.5" r="1.99" fill="white" opacity="0.9"/>
  <circle cx="522.5" cy="473.3" r="1.71" fill="white" opacity="0.9"/>
  <circle cx="349.1" cy="403.0" r="1.57" fill="white" opacity="0.9"/>
  <circle cx="509.9" cy="157.7" r="1.91" fill="white" opacity="0.9"/>
  <circle cx="881.6" cy="421.3" r="2.13" fill="white" opacity="0.9"/>
  <circle cx="799.8" cy="942.8" r="1.64" fill="white" opacity="0.9"/>
  <circle cx="167.7" cy="250.9" r="2.00" fill="white" opacity="0.9"/>
  <circle cx="744.6" cy="764.2" r="1.58" fill="white" opacity="0.9"/>
  <circle cx="756.5" cy="583.4" r="2.15" fill="white" opacity="0.9"/>
  <circle cx="744.3" cy="532.8" r="2.32" fill="white" opacity="0.9"/>
  <circle cx="560.6" cy="741.5" r="2.02" fill="white" opacity="0.9"/>
  <circle cx="842.4" cy="732.5" r="1.55" fill="white" opacity="0.9"/>
  <path d="M111.5,523.0L112.2,526.9L116.0,527.6L112.2,528.3L111.5,532.1L110.7,528.3L106.9,527.6L110.7,526.9Z" fill="white" opacity="0.95"/>
  <path d="M297.2,105.4L298.0,109.8L302.5,110.7L298.0,111.5L297.2,115.9L296.4,111.5L291.9,110.7L296.4,109.8Z" fill="white" opacity="0.95"/>
  <path d="M329.4,534.4L329.9,537.5L333.1,538.1L329.9,538.6L329.4,541.8L328.8,538.6L325.7,538.1L328.8,537.5Z" fill="white" opacity="0.95"/>
  <path d="M798.5,126.3L799.5,131.9L805.1,132.9L799.5,133.9L798.5,139.4L797.5,133.9L792.0,132.9L797.5,131.9Z" fill="white" opacity="0.95"/>
  <path d="M819.8,708.9L820.6,713.4L825.0,714.2L820.6,715.0L819.8,719.5L818.9,715.0L814.5,714.2L818.9,713.4Z" fill="white" opacity="0.95"/>
  <path d="M466.4,642.4L467.4,647.7L472.7,648.7L467.4,649.6L466.4,654.9L465.5,649.6L460.2,648.7L465.5,647.7Z" fill="white" opacity="0.95"/>
  <path d="M856.3,529.4L857.3,534.7L862.6,535.7L857.3,536.7L856.3,542.0L855.3,536.7L850.0,535.7L855.3,534.7Z" fill="white" opacity="0.95"/>
</svg>