<?xml version="1.0" encoding="UTF-8"?>
<svg id="Layer_1" xmlns="http://www.w3.org/2000/svg" version="1.1" viewBox="0 0 380 376.29">
  <!-- Generator: Adobe Illustrator 30.2.1, SVG Export Plug-In . SVG Version: 2.1.1 Build 1)  -->
  <g id="qTaUvM.tif" fill="#9acacf">
    <g>
      <path d="M380,188.79v1l-25.08.09c-.86,0-1.68,3.02-1.58,3.91l.8,6.93c.1.82-.8,3.29-.87,4.17l-.59,6.91c-.07.85-.4,2.6-.64,3.92l-.74,4.06c-.32,1.74-.67,3.35-1.06,4.95l-.99,4.02-.99,4.03c-.31,1.28-.71,2.76-1.09,3.9l-3.34,9.97c-.44,1.32-1.3,3.6-1.91,4.84l-6.52,13.25c1.26.84,3.48,2.18,4.65,2.77l2.69,1.35,14.77,7.44.22,2.21-10.89-5.8-6.51-3.59-5.45-2.89-3.43,5.9-1.85,3.2c-.53.91-1.73,2.37-2.44,3.42-9.43,13.9-20.32,25.92-33.08,36.76l-3.25,2.76c-1.19,1.01-2.66,2.17-3.93,3l-4.21,2.77-4.68,3.02,3.73,5.53,6.52,9.67c.96,1.43,1.99,3.28,2.94,4.91l.96,1.64c.22.37-1.39.88-1.62.51l-.92-1.49-3.11-5.09-1.92-2.98-2-3.06c-4.56-6.97-.87-3.41-5.47-9.08l-5.98,3.86c-4.68,3.02-9.91,5.58-15.17,7.74l-4.29,1.76-4.36,1.68c-5,1.92-12.99,4.39-18.22,5.57l-4.12.93-4.14.94c-.9.2-2.53.4-3.78.59l-4.1.63c-1.49.23-3.66.66-5.1.73l-15.69.68c-1.16.05-1.24,3.66-1.23,4.72l.07,18.84h-2l.19-15.98.15-7.5-16.39-.78c1.02.05-9.3-1.23-9.99-1.37l-5.07-1-4.95-1.06-4.03-1-3.25-.87-3.78-1.06c-1.08-.3-2.29-.58-3.2-.91l-5.05-1.85-10.68-4.38-2.95-1.26c-2.31-.99-5.17-2.37-7.12-3.65l-3.81-2.5-1.6-1.01c-.53-.34-2.27.81-2.64,1.45l-4.94,8.73-3.35,5.71-1.89,3.17c-.67,1.12-1.4,2.05-2.56,3.46.24-2.23.56-3.4,1.25-4.51l3.18-5.16,3.53-5.62,4.46-6.82c.39-.6-.54-2.54-1.29-3.01-18.8-11.65-35.85-27.93-48.31-46.43-.55-.82-2.08-2.32-2.47-2.98l-3.28-5.62-2.97-5.1-7.24,4.08-5.8,3.27-9,4.82c-1.62.19-.99-1.77.15-2.12l10.9-5.64,5.11-2.6,5.49-2.76-3.71-6.87c-.87-1.61-4.57-9.82-4.93-10.92l-5.3-15.99c-.2-.62-.54-2.22-.72-2.99l-.94-4.03-.97-4.12c-.2-.85-.41-2.53-.6-3.75l-.6-4.04-.67-4.96-.79-8.03c-.92-9.41,1.7-5.84-.67-10.83l-25.93-.11v-1l26.25-.03c1.83-8.2-.6-.38.39-10.89l.76-8.05.62-5.01c.17-1.34.43-2.79.67-3.98l1.02-5.05,1.07-4.93.95-4.06c.29-1.24.7-2.81,1.08-3.9l3.9-11.33c.42-1.21,1.16-3.1,1.67-4.2l2.97-6.31,3.59-7.41-5.1-2.61-2.58-1.31-14.75-7.47-.2-2.09,10.69,5.4,1.53,1.11,8.42,4.6c4.26,2.33,2.62-.18,8.2-8.31,16.26-23.71,27.25-34.73,50.81-51.4l-4.48-6.8-1.96-2.95-3.58-5.73-3.74-6.04c-.23-.36,1-1.21,1.24-.84l1,1.54,2,3.08,1.95,3.02,3.06,4.95,2.24,3.73,3.24,5.38,6.87-3.87c5.44-3.06,16.79-8.94,22.18-10.67l13.02-4.19c2.2-.71,4.74-1.35,6.91-1.84l4.13-.93,4.14-.94c.88-.2,2.55-.42,3.76-.58l5.11-.7c1.43-.19,3.82-.63,4.96-.67l14.85-.56c1.55-.74.35-5.02.32-6.9l-.27-17.4c0-.54,1.58-2.01,1.69-1.57s.48,1.83.47,2.48l-.25,16.63-.38,6.06c-.04.67,3,.91,3.73.93l11.85.31c1.16.03,3.43.49,4.95.69l5.09.7c1.25.17,2.78.37,3.8.58l5.06,1.05,4.09.84c.69.14,2.38.51,2.99.71l19,6.32c1.35.45,14.04,6.21,15.54,7.2l4.99,3.28c.65.42,2.66,1.23,3.09.62.29-.41.93-1.39,1.19-1.87l2.43-4.4,3.23-5.64,2.2-3.73,1.8-3.08c.64-1.09,2.23-2.26,3.48-2.71l-3.06,5.13-3.35,5.62-3.06,4.9c-1.57,2.52-3.17,4.59-3.96,7.59,20.25,12.16,35.76,27.57,49.12,45.96l1.78,2.45c.63.87,1.45,2.05,1.95,2.9l1.87,3.19,3.84,6.51,5.25-2.9,2.46-1.6,12.53-6.68c.97-.52,1.85-.72,3.99-.92l-3.64,2.57c-.5.35-1.89,1.25-2.46,1.53l-17.48,8.85,2.52,5.34,4.65,9.58c.62,1.27,1.46,3.49,1.91,4.84l3.35,9.97c.38,1.14.78,2.62,1.09,3.9l.99,4.03.99,4.02c.39,1.59.73,3.22,1.05,4.94l.75,4.09c.22,1.19.6,3.1.66,3.94l.46,6.79c.03.38.86,2.02.84,2.37l-.26,5.77c-.09,2.11-.11,4.74.01,7l26.24.03ZM112.63,47.13l-3.17,1.68c-1.36.72-4.14,2.36-5.47,3.31l3.44,5.44,3.15,4.98,1.84,3.02c1.55,2.54,2.99,4.91,4.85,7.52,22.03-13.35,45.63-20.38,71.93-20.8,1.22-7.24-.79-6.07.05-17.98l.5-7.02-5.58.03c-.36,0-2.05.7-2.44.72l-9.74.48c-1.15.06-3.45.48-4.94.72l-4.08.65-3.88.64-5.13.9c-.58.1-2.09.49-2.93.74l-7.06,2.03c-5.19,1.5-10.88,3.32-15.53,5.4l-7.57,3.39c-2.7,1.21-5.33,2.6-8.24,4.14ZM251.65,39.57l-4.29-1.65-11.34-3.93c-1.07-.37-2.66-.77-3.9-1.06l-4.07-.96-4.94-1.06-5.05-.99c-.42-.08-10.26-1.48-9.1-1.41l-10.77-.56c1.29.07-7.24-1.63-7.51-.35-.32,1.51-.02,4.64.1,6.63.6,10.51-.72,10.47.11,18.07,25.46.29,48.15,6.91,69.75,19.34l2.89-5.15c.65-1.16,1.33-2.63,1.98-3.67l3.57-5.67,4.43-6.95c-2.9-1.76-5.01-2.99-7.39-4.1l-9.57-4.48c-1.38-.65-3.27-1.41-4.9-2.04ZM28.38,202.71l.61,5.04.65,5.02.69,4.97c.18,1.33.59,3.36.93,4.81l.96,4.06.95,4.04c.2.85.49,2.18.77,3.01l3.77,11.31c.46,1.39,1.14,2.94,1.69,4.27l1.77,4.28,2.3,5.57c.84,2.03,2.12,4.62,3.55,6.54l5.67-3.12,8.62-4.75c4.31-2.37,2.65-.12,7.5-4.08-8.82-16.79-13.7-33.44-15.48-52.06l42.71-13.43c1.44-.67,2.71-1.53,3.77-2.6,10.37-22.31,37.39-29.49,57.87-16.71l151.28-47.38,2.34,2.22,7.14-4.27c6.51-3.9,7.16-3.01,14.2-7.52-.72-2.01-2.91-5.49-4.08-7.19l-2.15-3.14-1.95-2.98c-.41-.63-1.15-2.58-1.64-3.24-13.24-17.96-29.31-33.3-48.42-44.76l-3.69,6.52-3.23,5.72c-.37.65-1.33,2.03-1.9,2.85l-2.59,3.69c-.43.62-1.23,2.25-.84,2.8l1.61,2.3-200.31,62.72,4.64-11.47-4.08-2.01c-2.88-1.41-5.72-2.69-8.46-4.28l-5.7-3.3c-.68-.39-3.55-1.85-3.97-1.18-.78,1.24-2.26,3.95-2.74,5.12l-1.72,4.23-2.03,5-1.73,4.33c-1.01,2.53-1.93,5.44-2.71,8.19l-1.15,4-1.07,3.96-1.01,4.02c-.4,1.57-.77,3.23-1.04,4.94l-.81,5.07c-.21,1.33-.49,3.03-.56,3.95l-.54,6.83-.62,2.31-.46,4.89c-.19,1.95-.22,5.02.02,6.84,9.12.12,17.17.04,25.35.67l-25.09.75c-.57,1.47-.57,4.77-.34,6.62l.73,6ZM62.63,121.48c2.14,1.08,4.06,2.22,6.52,2.99,11.61-21.28,26.89-37.5,46.93-50.62-2-4.77-3.98-5.51-7.02-10.61l-3.85-6.47-2.41-4.04-6.69,4.42c-13.55,8.95-24.8,20.47-34.83,33.2-4.14,5.58-7.68,10.91-11.17,16.84l-2.6,3.94c-.49.74.35,2.89,1.31,3.37l13.81,6.99ZM334.31,264.21c.82-1.53,2.34-4.71,2.95-6.16l3.28-7.82c.73-1.75,1.65-3.82,2.24-5.6l3.03-9.14c.34-1.04.71-2.68.99-3.85l.98-4.03.91-3.95,1.02-5.06,1.03-5.03c.26-1.28.08-4.39.43-5.7l.63-2.35.52-8.66c.13-2.15.52-5.46-.34-6.81l-25.05-.73,25.36-.64c.31-1.67.25-4.88.08-6.87l-.75-9.02c-.1-1.25-.42-3.25-.67-4.92l-.62-4.04-.63-3.84-.98-5.08c-.21-1.09-.59-2.63-.93-3.91l-.83-3.08-1.91-7c-.19-.7-.47-1.9-.62-2.3l-1.94-5.03-4.35-10.65-1.55-3.62-2.75-6.42-8.27,4.6c-3.77,2.1-7.26,3.71-11.44,5.72-.57-.17-2.48,2-1.96,3.03,6.91,13.68,12.73,30.39,14.15,46.44l-153.56,48.19c-1.23.39-2.71,2.06-3.13,2.74-10.24,16.77-31.43,23.02-49.23,15.47-1-.42-3.51-.74-4.43-.45l-46.48,14.57-.07,1.73c-1.15.58-3.25,1.7-5.16,2.8l-6.53,3.77c-3.69,2.13-10.94,4.71-9.97,6.28l3.73,6.08,1.97,3.17,2.74,4.35c11.89,18.9,28.68,33.46,47.57,45.54.6.38,2.32.76,2.6.28l.95-1.69,3.53-6.27c.74-1.32,1.78-2.97,2.64-4.3l5.33-8.26-5.86-4.04c-.33-.23-1.06-1.04-1.26-1.27-.14-.15.87-.66,1.38-.82l205-64.23.83,1.21-6.87,15.54,5.98,2.73c2.36,1.08,4.93,2.3,7.1,3.61l2.7,1.62c1.78,1.07,3.88,2.11,6.48,3.19ZM287.17,319.14l2.61-2.01,3.5-2.43c4.88-3.39,8.88-7.63,13.1-11.93,7.35-7.49,14.15-15.4,19.55-24.35l4.14-6.85c1.07-1.78,2.3-3.96,3.44-6.11l-16.14-8.4c-1.82-.95-3.03-1.68-6.29-3.04-9.32,19.66-28.01,38.43-45.2,49.78-1.33.88-.78,3.32-.34,3.9l3.96,5.26c.98,1.3,2.16,3.35,3.07,4.85l1.83,3c.7,1.15,2.2,5.07,3.5,4.69,1.77-.52,4.23-2.49,5.45-3.43l3.81-2.92ZM232.72,345.65l3.39-.99c1.02-.3,2.44-.64,3.13-.9l4.45-1.65,6.65-2.45c1.24-.46,3.22-1.17,4.21-1.65l14.86-7.22c2.58-1.25,4.38-2.34,7.42-4.19l-5.4-7.64c-.51-.72-1.54-2.13-1.96-2.86l-3.3-5.74-1.42-2.47-1.02-1.79c-.25-.44-2.06.33-2.83.78-19.97,11.81-44.81,19.49-69.93,19.51-1.01,3.37.04,9.5-.05,16.97l-.1,8,7.92-.06,2.52-.81c1.85-.6,6.4-.16,8.56-.45l5.23-.7c1.38-.18,2.82-.43,4-.67l5.06-1.04,5.06-1.03c.93-.19,2.22-.56,3.57-.95ZM158.51,348.15l5.59.85,6.08,1.2,8.57.25,2.55.86,8.19.06-.31-7.08-.13-10.83c.79-2.32.89-4.86.04-7.05-25.07-.34-47.73-6.84-68.85-19.06-.8.8-2.08,2.19-2.51,2.98l-4.24,7.79c-.78,1.43-2.06,3.35-3,4.83l-3.73,5.85,7.2,3.67,10.07,4.89,4.97,2.02,17.15,5.85c1.03.35,2.72.69,3.88.98l4.02.95,4.45,1Z"/>
      <path d="M338.89,147.9c.37-.83.8-2.8.79-3.55-.01-1.01-2.37-2.02-3.72-2.22-.82-.12-3.23.69-3.65,1.41-1.4,2.39,2.09,3.97,1.86,9.58-.05,1.12-2.53,3.14-3.67,3.06s-3.03-1.47-3.61-2.64c-1.51-3.05,3.84-5.25,3.79-5.52l-.48-2.25c-.21-.99.35-3.43,1.02-4.16,2.45-2.66,9.54-1.46,10.27,1.43,1.42,5.65-2.95,7.4-4.18,13.66l5,.07c-.94,1.05-2.15,2.1-3.25,2.36-1.46.35-4.03-2.57-3.42-3.93l3.26-7.3ZM332.34,152.4c0-1.01-.82-1.83-1.83-1.83s-1.83.82-1.83,1.83.82,1.83,1.83,1.83,1.83-.82,1.83-1.83Z"/>
      <path d="M85.51,297.27c-.05.31-.79,1.56-1.01,1.32l-1.78-1.87c-.69-.73-2.32-1.86-3.23-2.12-2.75-.78-3.58,5.33-6.25,3.64,3.03-5.18,3.34-9.22.07-15.09,3.75-.25,2.62,3.84,6.19,3.79s2.43-4.2,6.23-3.71c-3.14,4.72-3.09,10.18-.21,14.04ZM81.4,290.79c0-1.05-.85-1.9-1.91-1.9s-1.91.85-1.91,1.9.85,1.9,1.91,1.9,1.91-.85,1.91-1.9Z"/>
      <path d="M344.62,220.36c-2.84-.84-6.46-1.72-7.58-1.46-.61,3.05-1.23,5.4-3.2,5.91-1.37.35-3.7-.86-4.45-2.05-.86-1.37.35-4.85,2.03-5.33,4.29-1.22,10.34-1.22,13.09,1.9.18,1.71.36,3.32.11,1.03ZM334.57,221.07c0-.95-.77-1.71-1.72-1.71s-1.72.77-1.72,1.71.77,1.71,1.72,1.71,1.72-.77,1.72-1.71Z"/>
      <path d="M328.89,225.56l1.82,1.95,5.8,1.33c.58-2.89.8-4.67,1.8-5.49,1.29-1.05,4.02-.82,5.02,0,1.29,1.04,1.81,4.79.2,5.75-3.85,2.3-15.14,2.91-14.65-3.54ZM342.5,226.34c0-.97-.79-1.75-1.75-1.75s-1.75.78-1.75,1.75.79,1.75,1.75,1.75,1.75-.78,1.75-1.75Z"/>
      <path d="M299.18,81.52c-.31-1.85-.92-3.28-1.16-2.05l-.45,5.65-.4,5.03c-.03.43-.5,1.26-.71,1.59s-1.24-1.41-1.24-1.91l.02-10.39h-2.23s-.02,11.91-.02,11.91h-2.06s.21-12.75.21-12.75c.02-1.27,3.22-2.08,4.53-2.07l5.07.07,3.15.04c3.74.04.46,12.17.17,14.29l1.15,3.13c.06.07-1.8.24-2.35.2l-3.68-.27c1.11-1.46,2.24-3.03,2.03-3.9l-1.34-5.62-.69-2.95ZM302.52,86.15c.44-2.69.43-5.03-.03-7.17-.44,2.69-.43,5.03.03,7.17Z"/>
      <path d="M46.22,150.33l-3.92,8.6c-.21.46-2.23,1.43-2.42.89l-4.41-12.07,1.36-1.39,4.21,9.89,3.75-9.31c.59-1.47,1.17-3.05,2.12-3.54s3.68.3,4.26,1.21c.67,1.05-.06,3.87-.64,4.97-1.04,1.99,3.06,3.84,1.42,7.69-1.15,2.72-3.98,3.08-6.02,3.05-.44,0-.09-.88.07-1.42,1.23-.5,3.58-1.98,3.94-3.16.46-1.54-1.48-4.82-3.72-5.41ZM49.12,146.9c0-.62-.5-1.11-1.12-1.11s-1.12.5-1.12,1.11.5,1.11,1.12,1.11,1.12-.5,1.12-1.11Z"/>
      <path d="M49.48,224.68c-5.69,1.07-.51-2.29-4.44-.59-1.35.75-2.43,1.13-2.93.72-.58-.47-1.36-1.32-1.63-1.12l-1.42,1.07c-.26.19-1.31-.99-1.08-1.17.88-.71,2.57-2.09,2.74-2.24l1.9,1.4c.49.36,1.86-.62,2.61-1.06.42-.25,1.43.32,2.31.71.71.32,2.03-.28,3.44-.96l2.56,1.88c-.62,1.55-.84,2.1-.25.63l-3.83.72Z"/>
      <path d="M49.24,230c-2.58,1.28-.97-1.95-4.45-.59-5.05,1.97-.79-1.79-6.05-.21.3,1.57-.1-.54-.15-.78l1.86-2.65,2.27,2.44,3.29-1.51,2.72,1.47c.56.3,2.36-2.01,2.78-1.54.88.97,2.04,2.82,1.99,3.11l-1.66-.69c-.52-.22-1.58.45-2.6.95Z"/>
      <path d="M237.59,324.95l-1.83,4.64c1.76,2.53,2.59,5.78.85,8s-5.22,3.08-7.29,1.87c-2.75-1.6-4.15-5.07-2.66-7.55.5-.83,1.52-1.65,1.33-2.14l-1.1-2.76-.65-1.67c-.12-.3,1.04-.69,1.21-.42l.8,1.25,3.28,2.31c1.83,1.29,5.02-5.46,6.07-3.54ZM235.62,334.25c0-2.07-1.68-3.74-3.75-3.74s-3.75,1.68-3.75,3.74,1.68,3.74,3.75,3.74,3.75-1.68,3.75-3.74Z"/>
      <path d="M153.47,38.65l-2.23.08.11,11.9-2.12-.07v-11.8s-2.21-.31-2.21-.31l-.03,11.45c.25,1.57-2.08,1.22-2.07-.11l.12-10.47c0-.79.89-3.01,1.55-3.13.83-.15,2.13-.22,3.4-.22h3.64c.84.01,1.8,2.31,1.81,3.16l.11,7.94c0,.42.48,2.11.81,1.96l1.85-.85,2.83.79c.4.11,1.31,1.34.97,1.6l-1.54,1.21c-1.22.95-2.82,2.21-3.83,2.66s-3.24-2.18-3.23-3.29l.05-12.48ZM157,51.65c0-.28-.22-.5-.5-.5s-.5.22-.5.5.22.5.5.5.5-.22.5-.5Z"/>
      <path d="M229.77,40.02l-2.46,4.49-5.21.38c-.14-.81-.27-1.55-.27-1.53,6.01-.66,4.15-4.51,7.69-4.45,3.82.06,2.12,3.37,7.65,4.48,0-.04.06.54.14,1.4l-5.4-.07-2.14-4.69Z"/>
      <rect x="221.5" y="46.64" width="15.7" height="2.03"/>
      <path d="M153.15,330.51l-.59,9.75c-.04.64-.19,1.57-.43,1.5-.37-.12-1.36-.53-1.36-.91l-.16-9.55c-.02-1.2-3.42-3.1-4.53-2.67-1.44.96,3.36,5.1.77,4.97-1.95-.09-4.25-4.96-2.34-6.55,3.23-2.68,4.08,2.4,9.88.14,1.24-.49,4.23-.92,4.99-.02,1.06,1.24.02,4.49-1.35,6.53-1.06-.28-2.24-.59-1.81-.47l1.79-4.83c-.93-.05-4.81,1.26-4.86,2.12Z"/>
      <path d="M75.22,95.45l-3.14.36,5.61-5.73c.32-.33-.32-2.47-.24-2.54l3.34-.89c1.04-.28,3.28-2.34,3.23-3.39l-.11-2.32c-.02-.44,1.55-.72,2-.68l2.42.22c.7.06,1.41,4.8-.26,4.81-1.2,0-2.99.31-3.65.86-.19.39.97,2.54.42,2.63-.65.11-2.94.27-3.41.73l-6.22,5.94Z"/>
      <path d="M308.18,296.26l-.94.99-11.46.12-1.92-1.13,2.63-2.51v-8.43s-2.64-2.52-2.64-2.52l2.07-1.18,9.93.15c.73.01,2.97,1.14,2.52,1.08l-2.94,2.58.18,7.98c.01.46,1.09,1.38,2.58,2.87ZM298.54,283.83l-.04,11.38,4.97.02.04-11.38-4.97-.02Z"/>
    </g>
  </g>
</svg>