<?xml version="1.0" encoding="UTF-8"?>
<svg id="Layer_1" xmlns="http://www.w3.org/2000/svg" version="1.1" viewBox="0 0 665.92 62.44">
  <!-- Generator: Adobe Illustrator 30.2.1, SVG Export Plug-In . SVG Version: 2.1.1 Build 1)  -->
  <defs>
    <style>
      .st0 {
        fill: #99bcc3;
      }

      .st1 {
        fill: #90b1b9;
      }

      .st2 {
        fill: #8fb0b8;
      }

      .st3 {
        fill: #98bbc2;
      }

      .st4 {
        fill: #9cc0c6;
      }

      .st5 {
        fill: #94b7be;
      }

      .st6 {
        fill: #95b7be;
      }

      .st7 {
        fill: #9bbfc6;
      }

      .st8 {
        fill: #93b5bc;
      }

      .st9 {
        fill: #b8463a;
      }

      .st10 {
        fill: #9bbec5;
      }

      .st11 {
        fill: #94b6be;
      }

      .st12 {
        fill: #96b8c0;
      }
    </style>
  </defs>
  <path class="st8" d="M513,14.98c-2.24,1.65-3.2,2.83-4.48,4.46l-4.13,5.27-2.67,3.41-4.93,6.07-6.43,7.45c-.57-1.44-.85-2.13-1.36-2.75l-3.66-4.46-4.23-5.26-3.97-5.03-3.91-5c-1.28-1.49-2.09-2.45-4.32-4.16l-.12,37.19c-1.71.13-3.05.13-4.8-.01l.04-52.15,6.88,8.4,3.82,4.66,4.23,5.78,3.81,4.69c2.74,3.37,5.65,6.13,7.78,10.17,1.69-1.84,3.65-3.99,5.46-6.21l4.5-5.52,3.81-5.22,3.16-3.94c2.05-2.55,4.42-4.86,6.19-7.7,1.04-1.66,1.68-3.19,4.23-3.92l.04,50.82c-1.5.37-3.08.37-4.85.15l-.11-37.19Z"/>
  <path class="st6" d="M391.04,51.94c-1.71.49-3.56.48-5.53.3l-5.11-10.65-1.67-3.36-4.42-8.33c-1.75-1.06-5.05-.66-7.28.17l-.08,22.07c-1.46.19-3.08.18-4.91.01V2.52s13.99-.06,13.99-.06c3.08-.01,6.19,1.63,8.65,3.11,3.26,1.96,4.95,4.48,5.89,8.26s-.56,7.85-3.1,11.17c-1.63,2.13-3.96,3-6.83,4.48.55,1.62,1.21,3.4,1.9,4.88l1.55,3.37,6.95,14.21ZM383.14,10.16c-4.05-3.97-10.61-2.67-16.16-2.84l-.03,17.86c5.03.43,11.96.6,16.31-3.06,2.24-1.88,4.09-7.84-.13-11.97Z"/>
  <path class="st3" d="M199.6,29.33l-21.61.02c-.55,0-1.99.98-1.99,1.66l.02,16.48,26.6.13c1.64,1.07,1.78,3.28.77,4.73l-32.25-.03V2.46s31.66-.04,31.66-.04l-.03,4.85-26.81.07.04,17.13,22.26.19c1.86.02,2.09,2.71,1.31,4.66Z"/>
  <path class="st3" d="M618.3,29.3l-22.4.13.03,18.09,26.41.11c.81,0,1.67,1.75,1.54,2.47s-1.03,2.27-1.84,2.27l-30.93-.03.03-49.89h30.26c.65.11,1.43,1.61,1.45,2.24.02.71-.7,2.58-1.42,2.58l-25.51.09.05,17.2,22.37.02c.72.59,1.4,1.4,1.54,2.01.16.7-.82,2.71-1.59,2.71Z"/>
  <path class="st0" d="M243.13,52.37l-5.08-.18-7.63-15.58c-1.17-2.39-1.92-4.97-3.51-7.21h-7.01s-.16,21.72-.16,21.72c-.7,1.36-3.24,1.59-4.77.97V2.48c5.17.08,10-.49,14.82.29s9.59,3.3,11.69,7.17c3.4,6.26,1.09,14.84-5.16,17.95-1.41.7-2.55.85-3.71,1.97l9.59,19.2c.41.83.54,1.56.93,3.3ZM237.55,12.72c-.54-1.29-2.63-3.2-3.86-3.9-4.08-2.31-9.79-1.42-14.67-1.42l.03,15.98c0,1.77,2.08,1.97,3.38,1.99,4.65.05,9.06.09,12.85-2.84,2.68-2.07,3.79-6.16,2.27-9.82Z"/>
  <path class="st7" d="M64.74,40.13c-.06,8.1-11.82,15.55-22.87,12.22-2.69-.81-6.12-2.2-8.08-4.17-1.5-1.52-3.12-3.98-3.52-5.84-.34-1.56-.98-3.68-.98-5.05l-.03-33.69c.43-1.44,3.68-1.6,4.65-.71l.18,34.46c.04,6.79,6.5,11.16,12.91,11.24,5.19.07,12.67-2.83,12.77-8.68l.63-36.3c.24-1.5,3.58-1.57,4.64-.7l-.29,37.22Z"/>
  <path class="st3" d="M555.83,50.75c-2.84-1.57-5.24-2.61-7.08-5.44.9-.96,2.24-2.18,3.13-2.85,5.44,4.63,11.28,8.24,18.56,4.67,1.34-.66,3.42-2.56,4.15-4.08.93-1.92.74-4.92.25-7.07-1.12-4.96-8.48-6.8-12.52-8.02-3.63-1.1-7.2-2.98-9.52-5.89-3.58-4.5-2.31-13.92,2.81-17.37,5.48-3.69,14.21-3.23,19.65.94.53.41,1.43,1.03,1.62,1.53.31.85-2.15,3.04-2.72,3.06-1.31.03-2.86-4.02-12.86-2.79-2.48.3-4.47,3.22-5.07,5.18-.82,2.65-.62,6.11,1.45,7.93,4,3.5,10.02,2.58,18.11,8.58,2.66,1.97,4.73,5.84,4.87,9.19.18,4.17-1.91,8.3-4.77,10.81-5.85,5.16-13.38,5.31-20.07,1.61Z"/>
  <path class="st3" d="M661.11,49.09c-6.32,5.26-13.79,5.34-20.46,1.57-2.61-1.48-4.94-2.6-6.85-5.3l3.01-2.95,4.96,3.73c2.58,1.94,5.9,2.46,9.2,2.41,2.84-.04,4.9-1.47,6.9-3.25,1.76-1.56,2.27-3.12,2.4-5.38.47-7.86-6.28-10.08-12.98-11.99-7.47-2.13-13.3-7.95-11.05-16.47,1.09-4.12,4.64-7.73,8.8-8.75,2.42-.6,5.39-.42,7.95-.2,3.39.29,6.3,2.35,9.03,4.46-.23,1.39-1.73,2.81-3.1,3.41-2.64-2.51-5.5-3.31-8.97-3.19-2.63.09-4.73.05-6.58,1.76s-2.67,3.58-2.64,6.43c.07,8.66,8.16,6.18,18.89,12.79,2.67,1.65,4.61,4.15,5.71,7.34,1.61,4.69-.32,10.32-4.24,13.58Z"/>
  <path class="st5" d="M344.96,29.18c-7.37.72-13-1.3-13,2.6v20.46s-4.86-.08-4.86-.08l.02-49.69h13.91c3.02,0,6.23,1.61,8.62,3.11,2.88,1.8,4.64,3.9,5.62,7.12,2.31,7.59-3.59,15.83-10.32,16.49ZM350.57,13.68c-4.47-8.07-9.72-6.2-18.61-6.31l.05,16.84c2.5,2.59,10.73.71,14.15-.53,4.03-1.46,5.64-7.77,4.41-9.99Z"/>
  <path class="st3" d="M294.66,43.24c-2.4,8.05-13.03,11.54-18.63,9.6-3.58-1.25-11.04-4.07-12.05-7.66l2.39-2.82,2.86,2.3c3.92,3.15,8.91,4.7,13.76,3.42,4.6-1.22,7.49-4.97,7.21-9.71-.55-9.25-11.69-8.66-18.99-13.15-4.71-2.89-6.52-7.22-5.6-12.49,1.23-7.04,6.52-10.27,13.33-10.45,4.28-.12,7.96.72,11.33,3.37.5.39,1.33,1.07,1.54,1.55.34.75-1.87,2.69-2.63,3.09-.46.25-1.39-.92-1.9-1.2-3.55-1.97-8.05-2.54-12.08-1.28-1.35.42-3.59,2.73-3.98,4.08-.6,2.06-.69,4.93-.02,6.87.62,1.79,3.27,3.22,4.98,3.83l10.13,3.64c3.29,1.18,7.71,5.7,8.43,9.22.49,2.39.61,5.52-.07,7.79Z"/>
  <path class="st12" d="M98.4,27.53c-1.43.62-3.62,1.65-4.85,1.68l-12.67.28-.05,22.76h-4.86s0-49.69,0-49.69c9.56.07,16.05-1.75,23.86,4.26s3.13,18.75-1.43,20.72ZM91.29,24.62c5.6-.61,9.06-5.28,7.59-10.95-.77-2.98-4.29-5.57-7.6-6.06s-6.68-.3-10.43-.3l.02,17.95,7.52.08c.66,0,2.13-.64,2.9-.73Z"/>
  <path class="st1" d="M147.95,52.1c-1.72.27-3.13.25-4.83.03l-.02-44.8-17.86-.02c-.12-1.59-.14-3-.06-4.85l40.45-.02c.32,1.52.34,3.02.19,4.87l-17.83.03-.02,44.78Z"/>
  <path class="st11" d="M13.11,57.35c-3.38,4.02-12.58,5.88-12.76,4.78l-.3-1.83c-.83-5.13,8.33.6,11.99-12.02l.03-45.51c1.53-.31,2.99-.33,4.91-.15l-.03,47.27c-1.15,3.03-1.38,4.53-3.84,7.46Z"/>
  <rect class="st3" x="113.06" y="2.42" width="4.93" height="49.96"/>
  <path class="st4" d="M537.76,50.56c0,2.24-3.67,2.24-4.77,1.35V2.84c1.14-.76,4.12-.68,4.77.8v46.92Z"/>
  <path class="st2" d="M253.4,12.24c-5.56-1.62.73-3.07-.3-9.31l2.59-1.68c2.55,2.63-.72,8.08-2.29,10.98Z"/>
  <g>
    <path class="st10" d="M448.84,39.45c-1.15-.63-2.22-1.92-3.01-3.02.18-.78.79-2.18.92-3.07l.84-6.04c.14-1.04-.42-3.31-.68-4.46-1.82-8.16-8.53-14.05-16.36-15.79-3.23-.72-5.66-.94-8.74-.09l-3.61,1c-2.54.7-4.42,2.06-6.36,3.69-4.15,3.5-6.35,7.67-7.36,12.99-.38,1.98-.44,3.68.13,5.8.31,1.14.38,2.9.86,3.93,1.61,3.47,3.37,7.1,6.58,9.32,2.55,1.76,5.56,3.39,8.59,4.31,2.62.8,12.53.77,13.51-1.66,1.43,1,2.77,2.38,3.75,3.82-4.51,2.1-10.71,3.97-15.9,2.64-4.12-1.05-8.34-2.05-11.73-4.8-4.76-3.86-8.92-9.02-10.04-15.2-1.62-8.98.55-16.81,7.05-23.38,3.03-3.07,7.76-5.76,12.21-6.69,4.11-.86,8.83-.69,12.98-.02,3.28.53,6.88,2.67,9.52,4.57,4.69,3.4,7.84,8.25,9.49,13.91,1.13,3.87,1.07,15.15-2.63,18.21Z"/>
    <path class="st9" d="M445.83,36.43c.78,1.1,1.86,2.38,3.01,3.02.05,1.87.48,4.29-.25,6.28-.54,1.47-2.81,3.72-4.26,4.24-2.08.75-4.55.24-6.45.24-.98-1.44-2.32-2.83-3.75-3.82-.06-1.9-.62-4.91.21-6.45,2.53-4.69,7.26-5.41,11.48-3.5Z"/>
  </g>
</svg>